<svg xmlns="http://www.w3.org/2000/svg" fill="none" viewBox="0 0 208 219" height="219" width="208">
<g opacity="0.88">
<g clip-path="url(#clip0)">
<path stroke-linejoin="round" stroke-miterlimit="10" stroke-width="1.11251" stroke="#36B37E" fill="#C5E9DA" d="M181.707 113.102L140.867 177.873L60.9406 174.953L102.087 110.135L181.707 113.102Z"></path>
<path stroke-linejoin="round" stroke-miterlimit="10" stroke-width="1.11251" stroke="#36B37E" fill="white" d="M102.088 110.134L60.9411 174.953L29.2133 104.376L66.9492 41.5254L102.088 110.134Z"></path>
<path stroke-linejoin="round" stroke-miterlimit="10" stroke-width="1.11251" stroke="#36B37E" fill="white" d="M102.088 110.134L128.135 75.3636L66.9494 41.5252L102.088 110.134Z"></path>
<path stroke-linejoin="round" stroke-miterlimit="10" stroke-width="1.11251" stroke="#36B37E" fill="white" d="M128.135 75.3638L181.707 113.102L102.088 110.134L128.135 75.3638Z"></path>
<path stroke-linejoin="round" stroke-miterlimit="10" stroke-width="1.11251" stroke="#36B37E" fill="#C5E9DA" d="M66.9494 41.5254L147.375 46.0677L128.135 75.3638L66.9494 41.5254Z"></path>
<path stroke-linejoin="round" stroke-miterlimit="10" stroke-width="1.11251" stroke="#36B37E" fill="white" d="M181.707 113.102L147.375 46.0677L128.135 75.3638L181.707 113.102Z"></path>
<path fill="#644DF2" d="M115.155 92.7271L107.253 103.181L115.155 92.7271Z"></path>
<path fill="#36B37E" d="M110.973 110.444L107.253 103.181L102.088 110.135L110.973 110.444Z"></path>
<path fill="#36B37E" d="M110.973 110.444L70.8383 175.296L84.5624 175.779L124.478 110.929L110.973 110.444Z"></path>
<path fill="#36B37E" d="M134.639 111.359L94.5043 176.211L108.228 176.694L148.144 111.844L134.639 111.359Z"></path>
<path fill="#36B37E" d="M134.64 111.358L120.835 84.4048L115.155 92.7267L124.478 110.929L134.64 111.358Z"></path>
<path fill="#36B37E" d="M148.144 111.844L130.216 76.8391L157.533 96.0986L165.959 112.551L148.144 111.844Z"></path>
<path fill="#172B4D" d="M165.96 112.551L159.673 121.846L175.818 122.525L181.707 113.102L165.96 112.551Z"></path>
<path fill="#172B4D" d="M142.515 120.912L136.801 130.246L154.397 130.955L160.331 121.619L142.515 120.912Z"></path>
<path fill="#172B4D" d="M154.397 130.955L148.111 140.25L164.256 140.93L170.189 131.594L154.397 130.955Z"></path>
<path fill="#172B4D" d="M129.738 72.8858L128.135 75.3638L139.147 45.5317L147.375 46.0677L129.738 72.8858Z"></path>
<path fill="#36B37E" d="M51.0106 152.975L58.4536 140.547L51.0904 124.876L43.8651 137.082L51.0106 152.975Z"></path>
<path fill="#172B4D" d="M52.6161 128.07L47.3124 116.205L54.5377 103.999L60.0612 115.862L84.5183 75.8299C84.5183 75.8299 69.2796 46.076 66.949 41.5254C64.6184 36.9748 29.1683 104.288 29.1683 104.288L45.2563 140.014L52.6161 128.07Z"></path>
</g>
</g>
<defs>
<clipPath id="clip0">
<rect transform="translate(200.162 148.057) rotate(152.88)" fill="white" height="156.036" width="136.667"></rect>
</clipPath>
</defs>
</svg>
