<svg xmlns="http://www.w3.org/2000/svg" fill="none" viewBox="0 0 82 77" height="77" width="82">
<g opacity="0.32">
<g clip-path="url(#clip0)">
<path stroke-linejoin="round" stroke-miterlimit="10" stroke-width="1.11251" stroke="#36B37E" fill="#C5E9DA" d="M52.3897 10.1903L70.644 33.4442L59.2125 62.1291L40.981 38.7574L52.3897 10.1903Z"></path>
<path stroke-linejoin="round" stroke-miterlimit="10" stroke-width="1.11251" stroke="#36B37E" fill="white" d="M40.9811 38.7567L59.2126 62.1284L29.4323 64.5089L11.4738 42.6328L40.9811 38.7567Z"></path>
<path stroke-linejoin="round" stroke-miterlimit="10" stroke-width="1.11251" stroke="#36B37E" fill="white" d="M40.9808 38.7563L31.7165 24.7736L11.4736 42.6324L40.9808 38.7563Z"></path>
<path stroke-linejoin="round" stroke-miterlimit="10" stroke-width="1.11251" stroke="#36B37E" fill="white" d="M31.7166 24.7738L52.3896 10.1895L40.9809 38.7565L31.7166 24.7738Z"></path>
<path stroke-linejoin="round" stroke-miterlimit="10" stroke-width="1.11251" stroke="#36B37E" fill="#C5E9DA" d="M11.4738 42.6326L23.56 13.9766L31.7167 24.7739L11.4738 42.6326Z"></path>
<path stroke-linejoin="round" stroke-miterlimit="10" stroke-width="1.11251" stroke="#36B37E" fill="white" d="M52.3896 10.1895L23.5599 13.9766L31.7166 24.7738L52.3896 10.1895Z"></path>
<path fill="#644DF2" d="M36.3464 31.7467L39.1226 35.9764L36.3464 31.7467Z"></path>
<path fill="#36B37E" d="M42.2466 35.5654L39.1227 35.9758L40.9811 38.7563L42.2466 35.5654Z"></path>
<path fill="#36B37E" d="M42.2463 35.5656L60.6215 58.5739L62.5776 53.646L44.1747 30.718L42.2463 35.5656Z"></path>
<path fill="#36B37E" d="M45.6491 27.0783L64.0243 50.0866L65.9805 45.1587L47.5775 22.2307L45.6491 27.0783Z"></path>
<path fill="#36B37E" d="M45.6494 27.0781L34.0573 28.6009L36.3464 31.7459L44.1749 30.7176L45.6494 27.0781Z"></path>
<path fill="#36B37E" d="M47.5775 22.2304L32.5228 24.208L43.0703 16.7732L50.146 15.8438L47.5775 22.2304Z"></path>
<path fill="#172B4D" d="M50.1463 15.8439L52.7107 19.3356L55.0523 13.5531L52.3898 10.1891L50.1463 15.8439Z"></path>
<path fill="#172B4D" d="M50.1451 25.4546L52.7977 28.7433L55.3385 22.4369L52.7136 19.0679L50.1451 25.4546Z"></path>
<path fill="#172B4D" d="M55.3387 22.4367L57.9031 25.9284L60.2447 20.1459L57.6198 16.7769L55.3387 22.4367Z"></path>
<path fill="#172B4D" d="M31.0236 23.8695L31.7167 24.7739L22.2976 16.899L23.56 13.9766L31.0236 23.8695Z"></path>
<path fill="#36B37E" d="M49.9323 62.8875L46.3787 58.5685L39.7249 59.2128L43.2261 63.4238L49.9323 62.8875Z"></path>
<path fill="#172B4D" d="M41.0848 59.0727L36.0821 59.4618L32.5809 55.2508L37.6113 54.7815L26.2275 40.6944C26.2275 40.6944 13.431 42.3753 11.4739 42.6324C9.51681 42.8895 29.3948 64.5135 29.3948 64.5135L44.4731 63.2985L41.0848 59.0727Z"></path>
</g>
</g>
<defs>
<clipPath id="clip0">
<rect transform="translate(67.4951 8.01367) rotate(82.5164)" fill="white" height="60.2428" width="52.7646"></rect>
</clipPath>
</defs>
</svg>
