<svg xmlns="http://www.w3.org/2000/svg" fill="none" viewBox="0 0 323 414" height="414" width="323">
<g clip-path="url(#clip0)">
<path stroke-linejoin="round" stroke-miterlimit="10" stroke-width="2.29137" stroke="#36B37E" fill="#C5E9DA" d="M24.2714 164.424L142.144 42.7351L313.885 85.3882L195.325 207.039L24.2714 164.424Z"></path>
<path stroke-linejoin="round" stroke-miterlimit="10" stroke-width="2.29137" stroke="#36B37E" fill="white" d="M195.326 207.039L313.885 85.3885L350.506 252.633L240.227 371.573L195.326 207.039Z"></path>
<path stroke-linejoin="round" stroke-miterlimit="10" stroke-width="2.29137" stroke="#36B37E" fill="white" d="M195.326 207.038L123.12 270.489L240.227 371.572L195.326 207.038Z"></path>
<path stroke-linejoin="round" stroke-miterlimit="10" stroke-width="2.29137" stroke="#36B37E" fill="white" d="M123.12 270.49L24.2715 164.424L195.325 207.039L123.12 270.49Z"></path>
<path stroke-linejoin="round" stroke-miterlimit="10" stroke-width="2.29137" stroke="#36B37E" fill="#C5E9DA" d="M240.227 371.573L68.1419 325.18L123.12 270.49L240.227 371.573Z"></path>
<path stroke-linejoin="round" stroke-miterlimit="10" stroke-width="2.29137" stroke="#36B37E" fill="white" d="M24.2715 164.424L68.1419 325.18L123.12 270.49L24.2715 164.424Z"></path>
<path fill="#644DF2" d="M159.118 238.792L180.98 219.747L159.118 238.792Z"></path>
<path fill="#36B37E" d="M176.226 202.329L180.98 219.748L195.326 207.039L176.226 202.329Z"></path>
<path fill="#36B37E" d="M176.226 202.329L292.61 80.1449L263.112 72.8613L147.205 195.141L176.226 202.329Z"></path>
<path fill="#36B37E" d="M125.396 189.592L241.78 67.4076L212.282 60.124L96.3754 182.404L125.396 189.592Z"></path>
<path fill="#36B37E" d="M125.396 189.592L143.036 254.23L159.118 238.792L147.205 195.14L125.396 189.592Z"></path>
<path fill="#36B37E" d="M96.3755 182.404L119.284 266.35L68.8868 212.23L58.1196 172.775L96.3755 182.404Z"></path>
<path fill="#172B4D" d="M58.1198 172.775L75.9562 155.506L41.3066 146.697L24.2715 164.424L58.1198 172.775Z"></path>
<path fill="#172B4D" d="M112.686 165.326L129.301 147.713L91.5222 138.179L74.4298 155.697L112.686 165.326Z"></path>
<path fill="#172B4D" d="M91.5223 138.179L109.359 120.909L74.7092 112.1L57.6168 129.618L91.5223 138.179Z"></path>
<path fill="#172B4D" d="M118.523 275.127L123.12 270.49L85.7148 330.081L68.1419 325.18L118.523 275.127Z"></path>
<path fill="#36B37E" d="M325.398 137.492L303.632 161.021L312.453 198.301L333.646 175.154L325.398 137.492Z"></path>
<path fill="#172B4D" d="M310.601 190.688L316.692 218.791L295.498 241.938L288.93 213.739L217.776 289.305C217.776 289.305 237.249 360.659 240.227 371.572C243.205 382.485 350.563 252.842 350.563 252.842L331.966 168.171L310.601 190.688Z"></path>
</g>
<defs>
<clipPath id="clip0">
<rect transform="translate(0.19873 80.3447) rotate(-15.2643)" fill="white" height="345.234" width="302.379"></rect>
</clipPath>
</defs>
</svg>
